<?xml version="1.0" standalone="no"?><!DOCTYPE svg PUBLIC "-//W3C//DTD SVG 1.1//EN" "http://www.w3.org/Graphics/SVG/1.1/DTD/svg11.dtd"><svg t="1504771444174" class="icon" style="" viewBox="0 0 1024 1024" version="1.1" xmlns="http://www.w3.org/2000/svg" p-id="2391" xmlns:xlink="http://www.w3.org/1999/xlink" width="200" height="200"><defs><style type="text/css"></style></defs><path d="M716.8 51.2 358.4 51.2 307.2 51.2C250.6752 51.2 204.8 97.0752 204.8 153.6l0 35.0208c0 0.1024 0 0.2048 0 0.3072 0 27.4944 0 171.2128 0 272.2816C204.8 480 204.8 497.1008 204.8 512c0 14.848 0 31.9488 0 50.8416 0 101.0688 0 244.736 0 272.2304 0 0.1024 0 0.2048 0 0.3072L204.8 870.4c0 56.5248 45.8752 102.4 102.4 102.4l51.2 0 358.4 0c56.5248 0 102.4-45.8752 102.4-102.4l0-358.4L819.2 153.6C819.2 97.0752 773.3248 51.2 716.8 51.2zM768 870.4c0 28.2624-22.8864 51.2-51.2 51.2L292.2496 921.6c0 0 104.8064-11.3152 162.4576-18.944C629.5552 879.4624 665.6 878.5408 665.6 722.8416c0-95.488 0-166.7072 0-210.8416s0-115.3536 0-210.8928c0-155.6992-36.0448-156.5696-210.8928-179.7632C397.056 113.7152 292.2496 102.4 292.2496 102.4L716.8 102.4c28.3136 0 51.2 22.9376 51.2 51.2l0 358.4L768 870.4zM512 512c0-28.2624 22.9376-51.2 51.2-51.2 28.3136 0 51.2 22.9376 51.2 51.2 0 28.2624-22.8864 51.2-51.2 51.2C534.9376 563.2 512 540.2624 512 512z" p-id="2392"></path></svg>