<?xml version="1.0" standalone="no"?><!DOCTYPE svg PUBLIC "-//W3C//DTD SVG 1.1//EN" "http://www.w3.org/Graphics/SVG/1.1/DTD/svg11.dtd"><svg t="1504602556430" class="icon" style="" viewBox="0 0 1024 1024" version="1.1" xmlns="http://www.w3.org/2000/svg" p-id="1134" xmlns:xlink="http://www.w3.org/1999/xlink" width="200" height="200"><defs><style type="text/css"></style></defs><path d="M860.16 980.48H197.12a15.36 15.36 0 0 1-15.36-15.36V17.0752a15.36 15.36 0 0 1 15.36-15.36H860.16a15.36 15.36 0 0 1 15.36 15.36V965.12a15.36 15.36 0 0 1-15.36 15.36z m-647.68-30.72H844.8V32.4352H212.48V949.76z" fill="#515151" p-id="1135"></path><path d="M818.63168 212.48H469.376V58.4192h349.25568V212.48z m-335.56992-11.91424h321.88928V70.32832H483.06176v130.23744z" fill="#515151" p-id="1136"></path><path d="M721.33632 183.85408h-154.67008V87.81824h154.67008v96.03584z m-140.98944-11.91424h127.30368V99.73248h-127.30368v72.20736zM749.40416 93.7728h36.50048v24.36608h-36.50048zM749.40416 141.34272h36.50048v12.1856h-36.50048zM749.40416 165.71392h36.50048v12.18048h-36.50048zM502.0928 93.7728h36.5056v24.36608h-36.5056zM502.0928 141.34272h36.5056v12.1856h-36.5056zM502.0928 165.71392h36.5056v12.18048h-36.5056zM469.376 253.44h16.8192v163.84h-16.8192v-163.84zM502.62016 253.44h16.8192v163.84h-16.8192v-163.84zM535.8592 253.44h16.82432v163.84h-16.82432v-163.84zM569.10848 253.44h16.81408v163.84h-16.81408v-163.84zM602.34752 253.44h16.8192v163.84h-16.8192v-163.84zM635.5968 253.44h16.8192v163.84h-16.8192v-163.84zM668.84096 253.44h16.8192v163.84h-16.8192v-163.84zM702.08512 253.44h16.81408v163.84h-16.81408v-163.84zM735.31904 253.44h16.82944v163.84h-16.82944v-163.84zM768.56832 253.44h16.81408v163.84h-16.81408v-163.84zM801.81248 253.44h16.81408v163.84h-16.81408v-163.84zM469.376 504.30464h16.8192V686.08h-16.8192V504.30464zM502.62016 504.30464h16.8192V686.08h-16.8192V504.30464zM535.8592 504.30464h16.82432V686.08h-16.82432V504.30464zM569.10848 504.30464h16.81408V686.08h-16.81408V504.30464zM602.34752 504.30464h16.8192V686.08h-16.8192V504.30464zM635.5968 504.30464h16.8192V686.08h-16.8192V504.30464zM668.84096 504.30464h16.8192V686.08h-16.8192V504.30464zM702.08512 504.30464h16.81408V686.08h-16.81408V504.30464zM735.31904 504.30464h16.82944V686.08h-16.82944V504.30464zM768.56832 504.30464h16.81408V686.08h-16.81408V504.30464zM801.81248 504.30464h16.81408V686.08h-16.81408V504.30464zM469.376 755.15904h16.8192V916.48h-16.8192v-161.32096zM502.62016 755.15904h16.8192V916.48h-16.8192v-161.32096zM535.8592 755.15904h16.82432V916.48h-16.82432v-161.32096zM569.10848 755.15904h16.81408V916.48h-16.81408v-161.32096zM602.34752 755.15904h16.8192V916.48h-16.8192v-161.32096zM635.5968 755.15904h16.8192V916.48h-16.8192v-161.32096zM668.84096 755.15904h16.8192V916.48h-16.8192v-161.32096zM702.08512 755.15904h16.81408V916.48h-16.81408v-161.32096zM735.31904 755.15904h16.82944V916.48h-16.82944v-161.32096zM768.56832 755.15904h16.81408V916.48h-16.81408v-161.32096zM801.81248 755.15904h16.81408V916.48h-16.81408v-161.32096zM228.37248 1009.10592a14.5152 14.5152 0 0 0 14.51008 14.5152h40.98048a14.5152 14.5152 0 0 0 14.51008-14.5152v-31.42144a14.5152 14.5152 0 0 0-14.51008-14.5152h-40.98048a14.5152 14.5152 0 0 0-14.51008 14.5152v31.42144zM748.61056 1009.10592a14.52032 14.52032 0 0 0 14.5152 14.5152h40.9856a14.52544 14.52544 0 0 0 14.52032-14.5152v-31.42144a14.52544 14.52544 0 0 0-14.52032-14.5152h-40.9856a14.52032 14.52032 0 0 0-14.5152 14.5152v31.42144z" fill="#515151" p-id="1137"></path><path d="M425.472 15.36h15.36v934.4h-15.36z" fill="#515151" p-id="1138"></path><path d="M228.37248 849.92H399.36v84.48H228.37248z" fill="#515151" p-id="1139"></path><path d="M295.02976 896.50176c0 13.85984-6.44096 20.79232-19.31776 20.79232-12.4416 0-18.6624-6.74816-18.6624-20.2496v-27.02848h9.92768v27.08992c0 7.74144 3.05152 11.61216 9.14944 11.61216 6.00064 0 9.00096-3.73248 9.00096-11.19232v-27.50976h9.90208v26.48576zM315.13088 900.28032V916.48h-9.90208v-46.46912h15.98976c11.56096 0 17.34144 4.89984 17.34144 14.69952 0 4.7616-1.74592 8.576-5.23264 11.4432s-7.85408 4.24448-13.09696 4.12672h-5.09952z m0-22.58944v15.0016h4.29056c5.82144 0 8.7296-2.52928 8.7296-7.58784 0-4.9408-2.88256-7.40864-8.64256-7.40864h-4.3776zM343.48032 904.7808c3.7376 3.0976 7.99232 4.64896 12.7488 4.64896 2.69824 0 4.73088-0.46592 6.08768-1.39264s2.03776-2.1248 2.03776-3.584c0-1.25952-0.5376-2.45248-1.61792-3.56864s-3.93216-2.64192-8.5504-4.56192c-7.26016-3.08224-10.89024-7.56224-10.89024-13.44 0-4.32128 1.64352-7.67488 4.93568-10.06592s7.64416-3.584 13.06624-3.584c4.54144 0 8.35072 0.5888 11.42784 1.77152v9.29792c-3.11808-2.11968-6.76864-3.17952-10.95168-3.17952-2.44224 0-4.38784 0.44544-5.85216 1.33632s-2.19136 2.08384-2.19136 3.584c0 1.19808 0.50176 2.304 1.50016 3.31264s3.47136 2.37568 7.40864 4.096c4.61824 1.98144 7.79264 4.0704 9.5232 6.272s2.59584 4.81792 2.59584 7.8592c0 4.45952-1.58208 7.8592-4.74112 10.19904s-7.64928 3.51232-13.47072 3.51232c-5.31968 0-9.68192-0.86016-13.0816-2.58048v-9.9328z" fill="#515151" p-id="1140"></path></svg>