<?xml version="1.0" standalone="no"?><!DOCTYPE svg PUBLIC "-//W3C//DTD SVG 1.1//EN"
        "http://www.w3.org/Graphics/SVG/1.1/DTD/svg11.dtd">
<svg t="1510121453050" class="icon" style="" viewBox="0 0 1024 1024" version="1.1" xmlns="http://www.w3.org/2000/svg"
     p-id="2391" xmlns:xlink="http://www.w3.org/1999/xlink" width="200" height="200">
    <defs>
        <style type="text/css"></style>
    </defs>
    <path d="M787.072981 917.464081H244.199356a7.655092 7.655092 0 0 1-7.655092-7.399922V328.021978c0-4.082716 3.317207-7.272338 7.655092-7.272337h542.873625c4.210301 0 7.782677 3.189622 7.782677 7.272337v582.169766c0 3.827546-3.572376 7.272338-7.782677 7.272337M251.726864 902.919406h527.946195v-567.752675H251.726864v567.752675m143.02264 120.822873h-63.282096a9.95162 9.95162 0 0 1-9.824035-9.95162v-36.744443h82.930166v36.744443a9.824035 9.824035 0 0 1-9.824035 9.95162m296.379655 0h-63.282096a9.95162 9.95162 0 0 1-9.95162-9.95162v-36.744443h83.185335v36.744443a10.20679 10.20679 0 0 1-9.951619 9.95162M313.605526 101.176078h47.844327v47.844327h-47.844327V101.176078M502.55872 100.282984h47.844326v47.844327h-47.844326V100.282984m-78.209526 24.751465z m-23.092862 0a23.092862 23.092862 0 1 0 46.185723 0 23.092862 23.092862 0 0 0-46.185723 0z m225.059712 0z m-22.837692 0c0 12.758487 10.20679 23.092862 22.965277 23.092862a22.965277 22.965277 0 0 0 23.220447-23.092862 22.965277 22.965277 0 1 0-46.185724 0zM424.349194 257.212375z m-17.479127 0c0 6.251659 3.317207 11.992978 8.675771 15.1826s11.992978 3.062037 17.351542 0a17.479127 17.479127 0 0 0 0-30.237615 16.968788 16.968788 0 0 0-17.351542 0 17.606712 17.606712 0 0 0-8.675771 15.055015z m119.547023 0z m-17.351542 0a17.351542 17.351542 0 1 0 34.83067 0c0-9.568865-7.910262-17.479127-17.479128-17.479127s-17.351542 7.910262-17.351542 17.479127z m117.250496 0z m-17.351542 0a17.861882 17.861882 0 0 0 8.675771 15.1826 17.861882 17.861882 0 0 0 17.479127 0 17.479127 17.479127 0 0 0-8.803356-32.661727 17.606712 17.606712 0 0 0-17.351542 17.479127z m-271.500605 0z m-17.479127 0c0 6.251659 3.317207 11.992978 8.675771 15.1826s11.992978 3.062037 17.351542 0a17.479127 17.479127 0 0 0 0-30.237615 16.968788 16.968788 0 0 0-17.351542 0 17.606712 17.606712 0 0 0-8.675771 15.055015zM283.750666 91.862383z m436.340258 122.86423z m-17.479127 0c0 6.251659 3.189622 11.992978 8.675771 15.055015a17.861882 17.861882 0 0 0 17.479127 0 17.606712 17.606712 0 0 0-17.606712-30.365199 17.479127 17.479127 0 0 0-8.548186 15.310184zM330.063974 927.798456h77.061262v6.889583h-77.061262V927.798456M330.063974 940.556943h77.061262v7.144753h-77.061262V940.556943M423.966439 927.798456h77.188847v6.889583H423.966439V927.798456M423.966439 940.556943h77.188847v7.144753H423.966439V940.556943M524.758487 927.798456h76.933677v6.889583H524.758487V927.798456M524.758487 940.556943h76.933677v7.144753H524.758487V940.556943M616.874764 927.798456h77.061262v6.889583h-77.061262V927.798456M616.874764 939.663849h77.061262v7.017168h-77.061262v-7.017168M330.063974 954.336109h77.061262v7.144753h-77.061262v-7.144753M423.966439 954.336109h77.188847v7.144753H423.966439v-7.144753M524.758487 954.336109h76.933677v7.144753H524.758487v-7.144753M616.874764 953.31543h77.061262v7.144753h-77.061262V953.31543M424.349194 125.034449z"
          fill="#ffffff" p-id="2392"></path>
    <path d="M401.256332 125.034449a23.092862 23.092862 0 1 0 46.185723 0 23.092862 23.092862 0 0 0-46.185723 0zM704.908325 605.901827h24.36871v115.974647h-24.36871v-115.974647m6.634413 12.886072v86.885297h10.972299v-86.885297h-10.972299zM714.349605 220.340348h10.972299v45.292629h-10.972299v-45.292629z"
          fill="#ffffff" p-id="2393"></path>
    <path d="M783.88336 0.001276H240.11664a10.844714 10.844714 0 0 0-10.844714 10.844714v975.769091c0 6.124074 4.848225 10.972299 10.844714 10.972299h543.76672a10.972299 10.972299 0 0 0 10.972298-10.972299V10.84599a10.972299 10.972299 0 0 0-10.972298-10.844714z m-69.533755 12.630902c6.251659 0 11.482638 5.103395 11.482638 11.355054a11.482638 11.482638 0 0 1-16.968787 9.824035 10.844714 10.844714 0 0 1-5.74132-9.696451c0-6.379244 4.97581-11.482638 11.227469-11.482638z m-376.885708 0c6.251659 0 11.482638 5.103395 11.482638 11.355054s-5.23098 11.355053-11.482638 11.355053a11.482638 11.482638 0 0 1 0-22.710107z m-53.713231 0a11.482638 11.482638 0 0 1 0 22.710107c-6.251659 0-11.482638-5.103395-11.482638-11.355053s5.23098-11.355053 11.482638-11.355054z m489.160395 963.265774H250.961354V45.42149h521.949707v930.476462z"
          fill="#ffffff" p-id="2394"></path>
    <path d="M359.28091 828.154672H334.65703l8.548186-32.151388-37.509952 42.868517h24.62388l-8.548186 32.151387 37.509952-42.868516z"
          fill="#ffffff" p-id="2395"></path>
    <path d="M331.339823 883.654091a50.140854 50.140854 0 1 1 0.382755-100.409294 50.140854 50.140854 0 0 1-0.382755 100.409294z m0-95.561069a45.292629 45.292629 0 1 0 0 90.585259 45.292629 45.292629 0 0 0 0-90.585259z"
          fill="#ffffff" p-id="2396"></path>
</svg>