<?xml version="1.0" standalone="no"?><!DOCTYPE svg PUBLIC "-//W3C//DTD SVG 1.1//EN"
        "http://www.w3.org/Graphics/SVG/1.1/DTD/svg11.dtd">
<svg t="1504598360261" class="icon" style="" viewBox="0 0 1024 1024" version="1.1" xmlns="http://www.w3.org/2000/svg"
     p-id="1004" xmlns:xlink="http://www.w3.org/1999/xlink" width="200" height="200">
    <defs>
        <style type="text/css"></style>
    </defs>
    <path d="M0 0l0 1024 1024 0 0-1024-1024 0zM963.776 963.776l-903.52 0 0-903.52 903.52 0 0 903.52zM240.928 616.32l0 166.72 60.224 0 0-166.72c44.448-13.12 77.152-53.856 77.152-102.464s-32.704-89.344-77.152-102.464l0-170.464-60.224 0 0 170.464c-44.448 13.12-77.152 53.856-77.152 102.464s32.704 89.376 77.152 102.464zM271.072 466.816c25.952 0 47.04 21.152 47.04 47.04s-21.088 47.04-47.04 47.04-47.04-21.088-47.04-47.04 21.088-47.04 47.04-47.04zM481.888 488.32l0 294.72 60.224 0 0-294.72c44.448-13.12 77.152-53.856 77.152-102.464s-32.704-89.344-77.152-102.464l0-42.464-60.224 0 0 42.464c-44.448 13.12-77.152 53.856-77.152 102.464s32.704 89.376 77.152 102.464zM512 338.816c25.952 0 47.04 21.152 47.04 47.04s-21.088 47.104-47.04 47.104-47.04-21.152-47.04-47.104 21.088-47.04 47.04-47.04zM752.928 808.192c59.136 0 107.264-48.128 107.264-107.264 0-48.672-32.704-89.344-77.152-102.464l0-357.504-60.224 0 0 357.504c-44.448 13.12-77.152 53.856-77.152 102.464 0 59.136 48.128 107.264 107.264 107.264zM752.928 653.792c25.952 0 47.04 21.152 47.04 47.04s-21.152 47.04-47.04 47.04-47.04-21.152-47.04-47.04 21.088-47.04 47.04-47.04z"
          p-id="1005" fill="#ffffff"></path>
</svg>