<?xml version="1.0" encoding="UTF-8" standalone="no"?>
<!DOCTYPE svg PUBLIC "-//W3C//DTD SVG 1.1//EN" "http://www.w3.org/Graphics/SVG/1.1/DTD/svg11.dtd">
<!-- 由 Microsoft Visio, SVG Export 生成 Ups.svg 页-1 -->
<svg xmlns="http://www.w3.org/2000/svg" xmlns:xlink="http://www.w3.org/1999/xlink" xmlns:ev="http://www.w3.org/2001/xml-events"
		xmlns:v="http://schemas.microsoft.com/visio/2003/SVGExtensions/" width="1.11664in" height="0.666967in"
		viewBox="0 0 80.3979 48.0217" xml:space="preserve" color-interpolation-filters="sRGB" class="st3">
	<v:documentProperties v:langID="2052" v:metric="true" v:viewMarkup="false"/>

	<style type="text/css">
	<![CDATA[
		.st1 {fill:none}
		.st2 {stroke:#ffffff;stroke-linecap:round;stroke-linejoin:round;stroke-width:1.25}
		.st3 {fill:none;fill-rule:evenodd;font-size:12px;overflow:visible;stroke-linecap:square;stroke-miterlimit:3}
	]]>
	</style>

	<g v:mID="0" v:index="1" v:groupContext="foregroundPage">
		<title>页-1</title>
		<v:pageProperties v:drawingScale="0.0393701" v:pageScale="0.0393701" v:drawingUnits="24" v:shadowOffsetX="8.50394"
				v:shadowOffsetY="-8.50394"/>
		<v:layer v:name="设备" v:index="0"/>
		<v:layer v:name="电器" v:index="1"/>
		<g id="group1053-1" transform="translate(-14.3954,47.3967) rotate(-90)" v:mID="1053" v:groupContext="group"
				v:layerMember="0;1">
			<v:custProps>
				<v:cp v:nameU="ShapeClass" v:lbl="形状类" v:invis="true" v:langID="2052" v:val="VT4(资产)"/>
				<v:cp v:nameU="ShapeType" v:lbl="形状类型" v:invis="true" v:langID="2052" v:val="VT4(电器)"/>
				<v:cp v:nameU="SubShapeType" v:lbl="子形状类型" v:invis="true" v:langID="2052" v:val="VT4(冰箱)"/>
				<v:cp v:nameU="ID" v:lbl="ID" v:type="0" v:invis="false" v:langID="2052"/>
				<v:cp v:nameU="Name" v:lbl="名称" v:type="0" v:invis="false" v:langID="2052"/>
				<v:cp v:nameU="Department" v:lbl="部门" v:type="0" v:invis="false" v:langID="2052"/>
				<v:cp v:nameU="BelongsTo" v:lbl="属于" v:type="0" v:invis="true" v:langID="2052"/>
				<v:cp v:nameU="Modify" v:lbl="修改日期" v:type="5" v:invis="false" v:langID="2052"/>
				<v:cp v:nameU="AssetNumber" v:lbl="资产号" v:type="0" v:invis="false" v:langID="2052"/>
				<v:cp v:nameU="SerialNumber" v:lbl="序列号" v:type="0" v:invis="false" v:langID="2052"/>
				<v:cp v:nameU="ProductDescription" v:lbl="产品说明" v:type="0" v:invis="false" v:langID="2052"/>
				<v:cp v:nameU="PurchaseDate" v:lbl="购买日期" v:type="5" v:invis="false" v:langID="2052"/>
				<v:cp v:nameU="ProductNumber" v:lbl="产品编号" v:type="0" v:langID="2052"/>
				<v:cp v:nameU="BaseElevation" v:lbl="基本标高" v:type="2" v:langID="2052"/>
			</v:custProps>
			<v:userDefs>
				<v:ud v:nameU="3D_type" v:val="VT0(1):26"/>
				<v:ud v:nameU="3D_model_id" v:val="VT4(食品冷冻柜)"/>
				<v:ud v:nameU="SolSH" v:val="VT4({5D50005D-537C-4738-9C46-130C74335A6D})"/>
				<v:ud v:nameU="ShapeClass" v:prompt="资产" v:val="VT0(2):26"/>
				<v:ud v:nameU="ShapeType" v:prompt="电器" v:val="VT0(11):26"/>
				<v:ud v:nameU="SubShapeType" v:prompt="冰箱" v:val="VT0(62):26"/>
				<v:ud v:nameU="visVersion" v:val="VT0(15):26"/>
			</v:userDefs>
			<title>食品冷冻柜</title>
			<g id="shape1054-2" v:mID="1054" v:groupContext="shape" v:layerMember="0;1" transform="translate(0,46.7717)">
				<title>工作表.1054</title>
			</g>
			<g id="shape1055-4" v:mID="1055" v:groupContext="shape" v:layerMember="0;1">
				<title>工作表.1055</title>
				<v:userDefs>
					<v:ud v:nameU="U" v:val="VT0(0.78740157480315):6"/>
					<v:ud v:nameU="U" v:prompt="" v:val="VT0(0.0078740157480315):6"/>
				</v:userDefs>
				<path d="M0 48.02 L46.77 48.02 L46.77 16.15 L0 16.15 L0 48.02 ZM1.13 15.02 L45.64 15.02 a0.283465 0.283465 0 0 1
							 0 0.566929 L2.83 15.59 L2.83 16.15 L2.27 16.15 L2.27 15.59 L1.13 15.59 a0.283465 0.283465 0 1 1 3.9968E-15
							 -0.566929 Z" class="st1"/>
				<path d="M3.4 42.92 L3.4 45.75 L1.13 47.45 L0.57 47.45 L0.57 42.92 L3.4 42.92" class="st2"/>
				<path d="M0 45.19 L0.57 45.19" class="st2"/>
				<path d="M3.4 45.19 L46.77 45.19" class="st2"/>
				<path d="M0 48.02 L46.77 48.02 L46.77 16.15 L0 16.15 L0 48.02" class="st2"/>
				<path d="M1.13 15.02 L45.64 15.02 a0.283465 0.283465 0 0 1 0 0.566929 L2.83 15.59 L2.83 16.15 L2.27 16.15 L2.27 15.59
							 L1.13 15.59 a0.283465 0.283465 0 1 1 3.9968E-15 -0.566929" class="st2"/>
				<path d="M43.94 15.59 L44.5 15.59 L44.5 16.15 L43.94 16.15 L43.94 15.59" class="st2"/>
			</g>
		</g>
	</g>
</svg>
